<svg width="36" height="18" viewBox="0 0 36 18" fill="none" xmlns="http://www.w3.org/2000/svg">
<path d="M0.16049 4.04762V1.82143H10.4482V4.04762H6.56922V17H4.03946V4.04762H0.16049ZM18.1581 17.2914C16.9762 17.2914 15.9238 17.0324 15.001 16.5143C14.0943 15.98 13.39 15.2757 12.8881 14.4014C12.3862 13.511 12.1352 12.5557 12.1352 11.5357C12.1352 11.1148 12.1838 10.6857 12.281 10.2486C12.4591 9.37428 12.8152 8.59714 13.3495 7.91714C13.9 7.22095 14.5638 6.67857 15.341 6.29C16.1343 5.90143 16.9762 5.70714 17.8667 5.70714C18.8057 5.70714 19.5829 5.90143 20.1981 6.29L18.1824 8.18429C17.8586 7.01857 17.3162 6.43571 16.5552 6.43571C16.021 6.43571 15.5838 6.71905 15.2438 7.28571C14.9038 7.85238 14.6691 8.58095 14.5395 9.47143C14.491 9.87619 14.4667 10.2648 14.4667 10.6371C14.4667 11.7057 14.6691 12.6367 15.0738 13.43C15.4948 14.2233 16.0533 14.8305 16.7495 15.2514C17.4457 15.6724 18.2148 15.8829 19.0567 15.8829C19.9795 15.8829 20.8295 15.6238 21.6067 15.1057C22.4 14.5876 23.0395 13.851 23.5252 12.8957C24.0272 11.9243 24.3024 10.791 24.351 9.49571L24.8852 9.64143C24.7719 11.2767 24.4076 12.669 23.7924 13.8186C23.1933 14.9681 22.4081 15.8343 21.4367 16.4171C20.4652 17 19.3724 17.2914 18.1581 17.2914ZM13.2038 12.0214C13.3819 11.8757 13.9486 11.4143 14.9038 10.6371C16.8305 9.08286 18.3443 7.75524 19.4452 6.65428C20.5462 5.55333 21.0967 4.59809 21.0967 3.78857C21.0967 3.48095 21.04 3.25428 20.9267 3.10857C20.8133 2.94667 20.6352 2.79286 20.3924 2.64714C20.1495 2.50143 19.9714 2.35571 19.8581 2.21C19.7448 2.06428 19.6881 1.83762 19.6881 1.53C19.6881 1.15762 19.7933 0.858094 20.0038 0.631427C20.2305 0.404761 20.53 0.291427 20.9024 0.291427C21.3719 0.291427 21.7281 0.477618 21.971 0.849999C22.2138 1.22238 22.3352 1.70809 22.3352 2.30714C22.3352 3.32714 22.0276 4.30667 21.4124 5.24571C20.8133 6.18476 20.0605 7.05095 19.1538 7.84429C18.2633 8.63762 17.0491 9.62524 15.511 10.8071L13.5438 12.3614L13.2038 12.0214ZM19.9067 11.8757C19.6638 11.8757 19.4533 11.8029 19.2752 11.6571C19.1133 11.4952 19.0324 11.2524 19.0324 10.9286C19.0324 10.459 19.1943 9.98952 19.5181 9.52C19.8581 9.05048 20.2872 8.67 20.8052 8.37857C21.3233 8.07095 21.8495 7.91714 22.3838 7.91714C22.8048 7.91714 23.2338 8.00619 23.671 8.18429C24.1081 8.34619 24.6667 8.59714 25.3467 8.93714C25.8972 9.21238 26.3505 9.42286 26.7067 9.56857C27.0629 9.71428 27.3867 9.78714 27.6781 9.78714C27.8886 9.78714 28.0586 9.74667 28.1881 9.66571C28.3338 9.58476 28.4067 9.47143 28.4067 9.32571C28.4067 9.21238 28.3014 9.05048 28.091 8.84C27.9291 8.67809 27.8076 8.54857 27.7267 8.45143C27.6619 8.33809 27.6295 8.19238 27.6295 8.01429C27.6295 7.80381 27.7024 7.63381 27.8481 7.50428C28.01 7.37476 28.2286 7.31 28.5038 7.31C29.0705 7.31 29.3538 7.62571 29.3538 8.25714C29.3538 8.71048 29.2081 9.18 28.9167 9.66571C28.6414 10.1352 28.2772 10.5238 27.8238 10.8314C27.3705 11.139 26.8929 11.2929 26.391 11.2929C26.0024 11.2929 25.5976 11.2119 25.1767 11.05C24.7557 10.8719 24.2214 10.6129 23.5738 10.2729C22.9586 9.94905 22.4486 9.70619 22.0438 9.54429C21.6391 9.36619 21.2586 9.27714 20.9024 9.27714C20.6272 9.27714 20.4248 9.32571 20.2952 9.42286C20.1657 9.50381 20.101 9.62524 20.101 9.78714C20.101 9.98143 20.2062 10.2 20.4167 10.4429C20.6272 10.7181 20.7324 10.9448 20.7324 11.1229C20.7324 11.3171 20.6595 11.4952 20.5138 11.6571C20.3843 11.8029 20.1819 11.8757 19.9067 11.8757ZM31.5971 17.2698C31.0349 17.2698 30.4784 17.1799 29.9275 17C29.3765 16.8313 28.9099 16.5503 28.5277 16.1567L29.2023 13.7282C29.4496 14.1104 29.7588 14.4196 30.1298 14.6558C30.5121 14.8806 30.9394 14.9931 31.4116 14.9931C31.9738 14.9931 32.4516 14.8019 32.8451 14.4196C33.2499 14.0374 33.4523 13.3796 33.4523 12.4464V1.82143H35.982V12.6319C35.982 13.7001 35.774 14.5771 35.358 15.2629C34.9533 15.9487 34.4136 16.4547 33.739 16.7808C33.0756 17.1068 32.3617 17.2698 31.5971 17.2698Z" fill="#2E3738"/>
</svg>
