<svg width="24" height="25" viewBox="0 0 24 25" fill="none" xmlns="http://www.w3.org/2000/svg">
<path d="M2 20.8499V18.8999C2.48333 18.8999 2.89583 18.8249 3.2375 18.6749C3.57917 18.5249 3.925 18.3624 4.275 18.1874C4.625 18.0124 5.0125 17.8541 5.4375 17.7124C5.8625 17.5707 6.38333 17.4999 7 17.4999C7.63333 17.4999 8.15417 17.5707 8.5625 17.7124C8.97083 17.8541 9.35 18.0124 9.7 18.1874C10.05 18.3624 10.4 18.5249 10.75 18.6749C11.1 18.8249 11.5167 18.8999 12 18.8999C12.4833 18.8999 12.9 18.8249 13.25 18.6749C13.6 18.5249 13.95 18.3624 14.3 18.1874C14.65 18.0124 15.0333 17.8541 15.45 17.7124C15.8667 17.5707 16.3833 17.4999 17 17.4999C17.6333 17.4999 18.1583 17.5707 18.575 17.7124C18.9917 17.8541 19.375 18.0124 19.725 18.1874C20.075 18.3624 20.425 18.5249 20.775 18.6749C21.125 18.8249 21.5333 18.8999 22 18.8999V20.8499C21.3667 20.8499 20.8375 20.7749 20.4125 20.6249C19.9875 20.4749 19.6 20.3124 19.25 20.1374C18.9 19.9624 18.5583 19.8041 18.225 19.6624C17.8917 19.5207 17.4833 19.4499 17 19.4499C16.5333 19.4499 16.1292 19.5207 15.7875 19.6624C15.4458 19.8041 15.1042 19.9624 14.7625 20.1374C14.4208 20.3124 14.0375 20.4749 13.6125 20.6249C13.1875 20.7749 12.65 20.8499 12 20.8499C11.35 20.8499 10.8125 20.7749 10.3875 20.6249C9.9625 20.4749 9.57917 20.3124 9.2375 20.1374C8.89583 19.9624 8.55833 19.8041 8.225 19.6624C7.89167 19.5207 7.48333 19.4499 7 19.4499C6.53333 19.4499 6.12917 19.5207 5.7875 19.6624C5.44583 19.8041 5.1 19.9624 4.75 20.1374C4.4 20.3124 4.0125 20.4749 3.5875 20.6249C3.1625 20.7749 2.63333 20.8499 2 20.8499ZM2 16.3999V14.4499C2.48333 14.4499 2.89583 14.3749 3.2375 14.2249C3.57917 14.0749 3.925 13.9124 4.275 13.7374C4.625 13.5624 5.0125 13.4041 5.4375 13.2624C5.8625 13.1207 6.38333 13.0499 7 13.0499C7.63333 13.0499 8.15417 13.1207 8.5625 13.2624C8.97083 13.4041 9.35 13.5624 9.7 13.7374C10.05 13.9124 10.4 14.0749 10.75 14.2249C11.1 14.3749 11.5167 14.4499 12 14.4499C12.4833 14.4499 12.9 14.3749 13.25 14.2249C13.6 14.0749 13.95 13.9124 14.3 13.7374C14.65 13.5624 15.0333 13.4041 15.45 13.2624C15.8667 13.1207 16.3833 13.0499 17 13.0499C17.6333 13.0499 18.1583 13.1207 18.575 13.2624C18.9917 13.4041 19.375 13.5624 19.725 13.7374C20.075 13.9124 20.425 14.0749 20.775 14.2249C21.125 14.3749 21.5333 14.4499 22 14.4499V16.3999C21.3667 16.3999 20.8375 16.3249 20.4125 16.1749C19.9875 16.0249 19.6 15.8624 19.25 15.6874C18.9 15.5124 18.5583 15.3541 18.225 15.2124C17.8917 15.0707 17.4833 14.9999 17 14.9999C16.5167 14.9999 16.1042 15.0707 15.7625 15.2124C15.4208 15.3541 15.0792 15.5124 14.7375 15.6874C14.3958 15.8624 14.0167 16.0249 13.6 16.1749C13.1833 16.3249 12.65 16.3999 12 16.3999C11.35 16.3999 10.8125 16.3249 10.3875 16.1749C9.9625 16.0249 9.57917 15.8624 9.2375 15.6874C8.89583 15.5124 8.55833 15.3541 8.225 15.2124C7.89167 15.0707 7.48333 14.9999 7 14.9999C6.53333 14.9999 6.12917 15.0707 5.7875 15.2124C5.44583 15.3541 5.1 15.5124 4.75 15.6874C4.4 15.8624 4.0125 16.0249 3.5875 16.1749C3.1625 16.3249 2.63333 16.3999 2 16.3999ZM2 11.9499V9.9999C2.48333 9.9999 2.89583 9.9249 3.2375 9.7749C3.57917 9.6249 3.925 9.4624 4.275 9.2874C4.625 9.1124 5.0125 8.95407 5.4375 8.8124C5.8625 8.67074 6.38333 8.5999 7 8.5999C7.63333 8.5999 8.15417 8.67074 8.5625 8.8124C8.97083 8.95407 9.35 9.1124 9.7 9.2874C10.05 9.4624 10.4 9.6249 10.75 9.7749C11.1 9.9249 11.5167 9.9999 12 9.9999C12.4833 9.9999 12.9 9.9249 13.25 9.7749C13.6 9.6249 13.95 9.4624 14.3 9.2874C14.65 9.1124 15.0333 8.95407 15.45 8.8124C15.8667 8.67074 16.3833 8.5999 17 8.5999C17.6333 8.5999 18.1583 8.67074 18.575 8.8124C18.9917 8.95407 19.375 9.1124 19.725 9.2874C20.075 9.4624 20.425 9.6249 20.775 9.7749C21.125 9.9249 21.5333 9.9999 22 9.9999V11.9499C21.3667 11.9499 20.8375 11.8749 20.4125 11.7249C19.9875 11.5749 19.6 11.4124 19.25 11.2374C18.9 11.0624 18.5583 10.9041 18.225 10.7624C17.8917 10.6207 17.4833 10.5499 17 10.5499C16.5333 10.5499 16.1292 10.6207 15.7875 10.7624C15.4458 10.9041 15.1042 11.0624 14.7625 11.2374C14.4208 11.4124 14.0375 11.5749 13.6125 11.7249C13.1875 11.8749 12.65 11.9499 12 11.9499C11.35 11.9499 10.8125 11.8749 10.3875 11.7249C9.9625 11.5749 9.57917 11.4124 9.2375 11.2374C8.89583 11.0624 8.55833 10.9041 8.225 10.7624C7.89167 10.6207 7.48333 10.5499 7 10.5499C6.53333 10.5499 6.12917 10.6207 5.7875 10.7624C5.44583 10.9041 5.1 11.0624 4.75 11.2374C4.4 11.4124 4.0125 11.5749 3.5875 11.7249C3.1625 11.8749 2.63333 11.9499 2 11.9499ZM2 7.4999V5.5499C2.48333 5.5499 2.89583 5.4749 3.2375 5.3249C3.57917 5.1749 3.925 5.0124 4.275 4.8374C4.625 4.6624 5.0125 4.50407 5.4375 4.3624C5.8625 4.22074 6.38333 4.1499 7 4.1499C7.63333 4.1499 8.15417 4.22074 8.5625 4.3624C8.97083 4.50407 9.35 4.6624 9.7 4.8374C10.05 5.0124 10.4 5.1749 10.75 5.3249C11.1 5.4749 11.5167 5.5499 12 5.5499C12.4833 5.5499 12.9 5.4749 13.25 5.3249C13.6 5.1749 13.95 5.0124 14.3 4.8374C14.65 4.6624 15.0333 4.50407 15.45 4.3624C15.8667 4.22074 16.3833 4.1499 17 4.1499C17.6333 4.1499 18.1583 4.22074 18.575 4.3624C18.9917 4.50407 19.375 4.6624 19.725 4.8374C20.075 5.0124 20.425 5.1749 20.775 5.3249C21.125 5.4749 21.5333 5.5499 22 5.5499V7.4999C21.3667 7.4999 20.8375 7.4249 20.4125 7.2749C19.9875 7.1249 19.6 6.9624 19.25 6.7874C18.9 6.6124 18.5583 6.45407 18.225 6.3124C17.8917 6.17074 17.4833 6.0999 17 6.0999C16.5333 6.0999 16.1292 6.17074 15.7875 6.3124C15.4458 6.45407 15.1042 6.6124 14.7625 6.7874C14.4208 6.9624 14.0375 7.1249 13.6125 7.2749C13.1875 7.4249 12.65 7.4999 12 7.4999C11.35 7.4999 10.8125 7.4249 10.3875 7.2749C9.9625 7.1249 9.57917 6.9624 9.2375 6.7874C8.89583 6.6124 8.55833 6.45407 8.225 6.3124C7.89167 6.17074 7.48333 6.0999 7 6.0999C6.53333 6.0999 6.12917 6.17074 5.7875 6.3124C5.44583 6.45407 5.1 6.6124 4.75 6.7874C4.4 6.9624 4.0125 7.1249 3.5875 7.2749C3.1625 7.4249 2.63333 7.4999 2 7.4999Z" fill="#1E1E1E"/>
</svg>
